HIERARCHY
ROOT joint_Root
{
	OFFSET 0.0 0.0 0.0
	CHANNELS 6 Xposition Yposition Zposition Zrotation Xrotation Yrotation 
	JOINT Hips
	{
		OFFSET -0.726466 93.3139 -2.00062
		CHANNELS 6 Xposition Yposition Zposition Zrotation Xrotation Yrotation 
		JOINT Spine
		{
			OFFSET 15.7357 0.0 0.0
			CHANNELS 6 Xposition Yposition Zposition Zrotation Xrotation Yrotation 
			JOINT Chest
			{
				OFFSET 8.98455 -0.406207 0.0
				CHANNELS 6 Xposition Yposition Zposition Zrotation Xrotation Yrotation 
				JOINT Neck
				{
					OFFSET 16.3773 0.0 0.0
					CHANNELS 6 Xposition Yposition Zposition Zrotation Xrotation Yrotation 
					JOINT Head
					{
						OFFSET 6.45672 0.0 0.0
						CHANNELS 6 Xposition Yposition Zposition Zrotation Xrotation Yrotation 
						End Site
						{
							OFFSET 0.0 0.0 0.0
						}
					}
				}
				JOINT Shoulder_L
				{
					OFFSET 12.9942 -0.242716 4.98039
					CHANNELS 6 Xposition Yposition Zposition Zrotation Xrotation Yrotation 
					JOINT UpperArm_L
					{
						OFFSET 5.34809 0.0 0.0
						CHANNELS 6 Xposition Yposition Zposition Zrotation Xrotation Yrotation 
						JOINT LowerArm_L
						{
							OFFSET 24.3286 1.87007e-05 0.0
							CHANNELS 6 Xposition Yposition Zposition Zrotation Xrotation Yrotation 
							JOINT Hand_L
							{
								OFFSET 22.2916 0.0 0.0
								CHANNELS 6 Xposition Yposition Zposition Zrotation Xrotation Yrotation 
								End Site
								{
									OFFSET 0.0 0.0 0.0
								}
							}
						}
					}
				}
				JOINT Shoulder_R
				{
					OFFSET 12.9945 -0.242716 -4.98039
					CHANNELS 6 Xposition Yposition Zposition Zrotation Xrotation Yrotation 
					JOINT UpperArm_R
					{
						OFFSET -5.34813 0.0 0.0
						CHANNELS 6 Xposition Yposition Zposition Zrotation Xrotation Yrotation 
						JOINT LowerArm_R
						{
							OFFSET -24.3289 0.000322201 0.0
							CHANNELS 6 Xposition Yposition Zposition Zrotation Xrotation Yrotation 
							JOINT Hand_R
							{
								OFFSET -22.2915 -0.000108084 0.0
								CHANNELS 6 Xposition Yposition Zposition Zrotation Xrotation Yrotation 
								End Site
								{
									OFFSET 0.0 0.0 0.0
								}
							}
						}
					}
				}
			}
		}
		JOINT UpperLeg_L
		{
			OFFSET -2.19248 -6.46944 0.0
			CHANNELS 6 Xposition Yposition Zposition Zrotation Xrotation Yrotation 
			JOINT LowerLeg_L
			{
				OFFSET 39.0811 0.0 -1.23785e-05
				CHANNELS 6 Xposition Yposition Zposition Zrotation Xrotation Yrotation 
				JOINT Foot_L
				{
					OFFSET 40.9854 0.0 -1.26872e-05
					CHANNELS 6 Xposition Yposition Zposition Zrotation Xrotation Yrotation 
					JOINT Toes_L
					{
						OFFSET 11.7543 0.0 0.0
						CHANNELS 6 Xposition Yposition Zposition Zrotation Xrotation Yrotation 
						End Site
						{
							OFFSET 0.0 0.0 0.0
						}
					}
				}
			}
		}
		JOINT UpperLeg_R
		{
			OFFSET -2.19251 6.46944 0.0
			CHANNELS 6 Xposition Yposition Zposition Zrotation Xrotation Yrotation 
			JOINT LowerLeg_R
			{
				OFFSET -39.0811 -0.00228153 -0.0401928
				CHANNELS 6 Xposition Yposition Zposition Zrotation Xrotation Yrotation 
				JOINT Foot_R
				{
					OFFSET -40.9854 0.0 0.0
					CHANNELS 6 Xposition Yposition Zposition Zrotation Xrotation Yrotation 
					JOINT Toes_R
					{
						OFFSET -11.7543 0.0 0.0
						CHANNELS 6 Xposition Yposition Zposition Zrotation Xrotation Yrotation 
						End Site
						{
							OFFSET 0.0 0.0 0.0
						}
					}
				}
			}
		}
	}
}
MOTION
Frames:	4
Frame Time:	0.0333333
0.000000 0.000000 0.000000 0.000000 0.000000 -0.000000 -0.071780 92.333400 -1.800300 88.119000 0.227158 6.573340 15.735700 0.000005 -0.000001 81.309400 85.670300 -80.760900 8.984550 -0.406207 -0.000000 0.800866 -1.341270 1.105480 16.377300 -0.000001 -0.000001 6.513460 -2.194830 0.163789 6.456720 -0.000001 -0.000000 9.107480 -2.831190 -0.694379 12.994200 -0.242716 4.980390 -86.269100 -10.687900 -70.628000 5.348090 -0.000007 -0.000001 -86.243900 -22.342300 -98.787800 24.328600 0.000019 0.000005 10.543900 1.816730 -80.334000 22.291600 -0.000001 0.000005 21.900100 5.560470 -9.210580 12.994500 -0.242716 -4.980390 91.697800 -5.329300 -72.300300 -5.348130 -0.000001 -0.000004 -77.070600 -24.253900 -105.987000 -24.328900 0.000322 -0.000009 16.470800 5.522650 -71.971300 -22.291500 -0.000108 -0.000004 23.300500 5.413620 -3.386110 -2.192480 -6.469440 -0.000000 -175.546000 -8.237700 -1.403280 39.081100 -0.000007 -0.000012 -0.092172 0.212742 23.425100 40.985400 -0.000006 -0.000013 0.532172 4.556080 -65.683400 11.754300 -0.000000 0.000003 -0.000039 -0.000457 -16.595400 -2.192510 6.469440 -0.000001 178.757000 15.245800 -178.353000 -39.081100 -0.002282 -0.040193 -0.046727 0.138934 19.810900 -40.985400 0.000008 0.000006 2.509310 7.140570 -65.093700 -11.754300 -0.000006 -0.000006 -0.008748 -0.094029 -20.402800
0.000000 0.000000 0.000000 0.000000 0.000000 -0.000000 -0.060405 92.336900 -1.815210 88.135000 0.234939 6.529750 15.735700 0.000005 -0.000001 81.185700 85.677200 -80.634600 8.984550 -0.406207 -0.000000 0.784472 -1.357860 1.110550 16.377300 -0.000001 -0.000001 6.474550 -2.246940 0.165276 6.456720 -0.000001 -0.000000 9.117650 -2.898810 -0.669797 12.994200 -0.242716 4.980390 -86.273800 -10.676200 -70.631000 5.348090 -0.000007 -0.000001 -86.223500 -22.385600 -98.864900 24.328600 0.000019 0.000005 10.483800 1.837250 -80.170800 22.291600 -0.000001 0.000005 21.757200 5.558600 -9.118670 12.994500 -0.242716 -4.980390 91.700600 -5.323180 -72.254100 -5.348130 -0.000001 -0.000004 -76.879000 -24.341800 -105.947000 -24.328900 0.000322 -0.000009 16.334900 5.487540 -71.930800 -22.291500 -0.000108 -0.000004 23.395900 5.415510 -3.448550 -2.192480 -6.469440 -0.000000 -175.577000 -8.275510 -1.445510 39.081100 -0.000007 -0.000012 -0.092696 0.214220 23.398900 40.985400 -0.000006 -0.000013 0.541420 4.549090 -65.659100 11.754300 -0.000000 0.000003 -0.000036 -0.000429 -16.594300 -2.192510 6.469440 -0.000001 178.751000 15.218600 -178.399000 -39.081100 -0.002282 -0.040193 -0.047048 0.139910 19.799700 -40.985400 0.000008 0.000006 2.483160 7.113800 -65.077500 -11.754300 -0.000006 -0.000006 -0.008590 -0.092781 -20.351800
0.000000 0.000000 0.000000 0.000000 0.000000 -0.000000 -0.061455 92.341200 -1.822650 88.158300 0.247141 6.545810 15.735700 0.000005 -0.000001 81.087000 85.656400 -80.534800 8.984550 -0.406207 -0.000000 0.823483 -1.378880 1.113500 16.377300 -0.000001 -0.000001 6.403990 -2.272320 0.180774 6.456720 -0.000001 -0.000000 9.166720 -2.938370 -0.689902 12.994200 -0.242716 4.980390 -86.271800 -10.655600 -70.587500 5.348090 -0.000007 -0.000001 -86.134100 -22.439400 -98.839000 24.328600 0.000019 0.000005 10.368000 1.839030 -80.051300 22.291600 -0.000001 0.000005 21.722400 5.559610 -9.168060 12.994500 -0.242716 -4.980390 91.698900 -5.304960 -72.213800 -5.348130 -0.000001 -0.000004 -76.548400 -24.520000 -105.812000 -24.328900 0.000322 -0.000009 16.118500 5.400030 -71.963800 -22.291500 -0.000108 -0.000004 23.442300 5.416260 -3.473640 -2.192480 -6.469440 -0.000000 -175.609000 -8.219260 -1.407300 39.081100 -0.000007 -0.000012 -0.092242 0.213666 23.350400 40.985400 -0.000006 -0.000013 0.538340 4.530860 -65.635100 11.754300 -0.000000 0.000003 -0.000035 -0.000410 -16.593600 -2.192510 6.469440 -0.000001 178.735000 15.229200 -178.387000 -39.081100 -0.002282 -0.040193 -0.044080 0.131616 19.806700 -40.985400 0.000008 0.000006 2.564730 7.097290 -65.093100 -11.754300 -0.000006 -0.000006 -0.008832 -0.094694 -20.430000
0.000000 0.000000 0.000000 0.000000 0.000000 -0.000000 -0.065895 92.332500 -1.826380 88.125900 0.247057 6.553950 15.735700 0.000005 -0.000001 81.146900 85.637200 -80.576300 8.984550 -0.406207 -0.000000 0.863132 -1.376750 1.150610 16.377300 -0.000001 -0.000001 6.346120 -2.281930 0.189241 6.456720 -0.000001 -0.000000 9.273730 -2.965680 -0.703734 12.994200 -0.242716 4.980390 -86.281800 -10.585500 -70.518200 5.348090 -0.000007 -0.000001 -85.758900 -22.491800 -98.376700 24.328600 0.000019 0.000005 9.961030 1.728150 -80.256700 22.291600 -0.000001 0.000005 21.618500 5.557520 -9.066170 12.994500 -0.242716 -4.980390 91.677200 -5.217530 -72.151500 -5.348130 -0.000001 -0.000004 -75.742200 -24.833000 -105.243000 -24.328900 0.000322 -0.000009 16.189900 5.319710 -72.291900 -22.291500 -0.000108 -0.000004 23.760800 5.409870 -3.260880 -2.192480 -6.469440 -0.000000 -175.563000 -8.201840 -1.459980 39.081100 -0.000007 -0.000012 -0.094351 0.217586 23.442900 40.985400 -0.000006 -0.000013 0.527612 4.529990 -65.665900 11.754300 -0.000000 0.000003 -0.000041 -0.000478 -16.596200 -2.192510 6.469440 -0.000001 178.780000 15.191000 -178.413000 -39.081100 -0.002282 -0.040193 -0.044486 0.132485 19.842100 -40.985400 0.000008 0.000006 2.498490 7.079510 -65.086700 -11.754300 -0.000006 -0.000006 -0.008536 -0.092350 -20.334200
